<svg width="232" height="62" viewBox="0 0 232 62" fill="none" xmlns="http://www.w3.org/2000/svg">
<path fill-rule="evenodd" clip-rule="evenodd" d="M61.3672 59.8603V16.9285H44.5312V59.8603H61.3672ZM44.5312 0.934326V12.7195H61.3672V0.934326H44.5312ZM22.3919 14.9924H20.4136C19.2351 14.9924 17.762 15.1046 15.9942 15.3291C6.76246 17.4897 2.14659 22.3722 2.14659 29.9764C2.14659 32.2773 2.73585 34.466 3.91437 36.5425C5.87857 39.6852 10.1156 42.1264 16.6255 43.8661C22.5462 44.9885 25.5065 46.3354 25.5065 47.9068C25.5065 49.0292 24.2579 49.5904 21.7605 49.5904H20.7083C15.91 49.5904 11.1398 48.3277 6.39768 45.8023H6.22932C6.06096 45.8303 3.98452 48.973 0 55.2304V55.3988C6.62216 59.7761 13.9037 61.9648 21.8447 61.9648H23.1074C24.3701 61.9648 26.0256 61.8526 28.074 61.6281C37.3058 59.692 41.9216 54.8095 41.9216 46.9808C41.9216 43.1927 40.6168 40.1622 38.0073 37.8893C35.9308 35.9813 31.6938 34.1574 25.2961 32.4176C20.8065 31.4355 18.5617 30.4815 18.5617 29.5555C18.8703 28.0964 19.8805 27.3668 21.5922 27.3668H22.6444C24.5244 27.3668 26.8394 27.7597 29.5893 28.5454L35.3556 30.1448C39.0314 23.691 40.8694 20.3238 40.8694 20.0432C34.612 16.676 28.4528 14.9924 22.3919 14.9924ZM110.36 59.8603H94.5341V37.4684C94.5341 33.2875 93.075 30.706 90.1568 29.7239C89.5394 29.6116 89.0343 29.5555 88.6415 29.5555H87.6314C84.657 29.5555 82.6928 31.2952 81.7388 34.7747C81.6265 35.1956 81.5704 35.7007 81.5704 36.2899V59.8603H65.5762V16.9285H81.5704V22.316C85.3866 17.7142 89.7078 15.4133 94.5341 15.4133H95.7126C102.643 15.4133 107.301 18.8927 109.687 25.8516C110.135 27.9561 110.36 29.8642 110.36 31.5758V59.8603ZM115.958 1.35523V16.9285H111.707V28.7979H115.958V36.9634C115.958 47.3736 119.564 54.3325 126.775 57.84C130.703 59.1869 134.632 59.8603 138.56 59.8603H145.379V48.2856C139.178 47.9769 135.6 47.1491 134.646 45.8023C133.411 44.0906 132.794 42.2667 132.794 40.3306V28.7979H145.379V16.9285H132.794V1.35523H115.958ZM178.209 16.2551L183.091 17.2652V32.7544H180.566C174.056 32.7544 169.791 34.5502 167.771 38.1419C166.536 39.9097 165.919 43.0524 165.919 47.57V59.8603H149.588V16.9285H165.582V25.6832L168.107 21.4742C170.801 17.9948 174.168 16.2551 178.209 16.2551ZM202.453 45.1288C201.892 43.6978 201.611 41.7055 201.611 39.152V37.8052C201.611 33.6803 202.733 30.8743 204.978 29.3872C206.185 29.0504 207.195 28.8821 208.009 28.8821H209.019C212.611 29.2469 214.406 30.1448 214.406 31.5758C215.08 32.1651 215.473 34.5783 215.585 38.8153C215.585 44.5676 213.789 47.7945 210.197 48.496C209.664 48.496 209.103 48.5521 208.514 48.6644C205.483 48.6644 203.463 47.4859 202.453 45.1288ZM195.55 59.4394C198.244 60.4496 200.938 60.9547 203.631 60.9547C207.925 60.9547 211.685 59.6078 214.911 56.914H215.08V59.8603H231.958L232 16.9285H215.164V20.8008C211.937 18.107 208.542 16.7602 204.978 16.7602H202.79C196.139 16.7602 190.752 19.9029 186.627 26.1883C184.719 29.5275 183.765 33.2875 183.765 37.4684V37.9735C183.765 48.3277 187.693 55.483 195.55 59.4394ZM110.064 0.988901H65.4534V12.6901H110.064V0.988901Z" fill="white"/>
</svg>
